<?xml version="1.0" encoding="UTF-8"?>
<svg width="1408px" height="1536px" viewBox="0 0 1408 1536" version="1.1" xmlns="http://www.w3.org/2000/svg" xmlns:xlink="http://www.w3.org/1999/xlink">
    <!-- Generator: Sketch 46.2 (44496) - http://www.bohemiancoding.com/sketch -->
    <title>Shape</title>
    <desc>Created with Sketch.</desc>
    <defs></defs>
    <g id="Page-1" stroke="none" stroke-width="1" fill="none" fill-rule="evenodd">
        <g id="trash" fill-rule="nonzero" fill="#9C9B9B">
            <path d="M512,1248 L512,544 C512,534.666667 509,527 503,521 C497,515 489.333333,512 480,512 L416,512 C406.666667,512 399,515 393,521 C387,527 384,534.666667 384,544 L384,1248 C384,1257.33333 387,1265 393,1271 C399,1277 406.666667,1280 416,1280 L480,1280 C489.333333,1280 497,1277 503,1271 C509,1265 512,1257.33333 512,1248 Z M768,1248 L768,544 C768,534.666667 765,527 759,521 C753,515 745.333333,512 736,512 L672,512 C662.666667,512 655,515 649,521 C643,527 640,534.666667 640,544 L640,1248 C640,1257.33333 643,1265 649,1271 C655,1277 662.666667,1280 672,1280 L736,1280 C745.333333,1280 753,1277 759,1271 C765,1265 768,1257.33333 768,1248 Z M1024,1248 L1024,544 C1024,534.666667 1021,527 1015,521 C1009,515 1001.33333,512 992,512 L928,512 C918.666667,512 911,515 905,521 C899,527 896,534.666667 896,544 L896,1248 C896,1257.33333 899,1265 905,1271 C911,1277 918.666667,1280 928,1280 L992,1280 C1001.33333,1280 1009,1277 1015,1271 C1021,1265 1024,1257.33333 1024,1248 Z M480,256 L928,256 L880,139 C875.333333,133 869.666667,129.333333 863,128 L546,128 C539.333333,129.333333 533.666667,133 529,139 L480,256 Z M1408,288 L1408,352 C1408,361.333333 1405,369 1399,375 C1393,381 1385.33333,384 1376,384 L1280,384 L1280,1332 C1280,1387.33333 1264.33333,1435.16667 1233,1475.5 C1201.66667,1515.83333 1164,1536 1120,1536 L288,1536 C244,1536 206.333333,1516.5 175,1477.5 C143.666667,1438.5 128,1391.33333 128,1336 L128,384 L32,384 C22.6666667,384 15,381 9,375 C3,369 0,361.333333 0,352 L0,288 C0,278.666667 3,271 9,265 C15,259 22.6666667,256 32,256 L341,256 L411,89 C421,64.3333333 439,43.3333333 465,26 C491,8.66666667 517.333333,0 544,0 L864,0 C890.666667,0 917,8.66666667 943,26 C969,43.3333333 987,64.3333333 997,89 L1067,256 L1376,256 C1385.33333,256 1393,259 1399,265 C1405,271 1408,278.666667 1408,288 Z" id="Shape"></path>
        </g>
    </g>
</svg>